<?xml version="1.0" encoding="iso-8859-1"?>
<!-- Generator: Adobe Illustrator 19.0.0, SVG Export Plug-In . SVG Version: 6.00 Build 0)  -->
<svg version="1.1" id="Layer_1" xmlns="http://www.w3.org/2000/svg" xmlns:xlink="http://www.w3.org/1999/xlink" x="0px" y="0px"
	 viewBox="0 0 512 512" style="enable-background:new 0 0 512 512;" xml:space="preserve">
<g>
	<g>
		<path fill="#828282" d="M122.725,199.913c-12.248,0-22.213,9.965-22.213,22.213c0,12.248,9.965,22.213,22.213,22.213
			c12.248,0,22.213-9.965,22.213-22.213C144.937,209.878,134.973,199.913,122.725,199.913z"/>
	</g>
</g>
<g>
	<g>
		<path fill="#828282" d="M189.362,199.913c-12.248,0-22.213,9.965-22.213,22.213c0,12.248,9.965,22.213,22.213,22.213
			c12.248,0,22.213-9.965,22.213-22.213C211.575,209.878,201.61,199.913,189.362,199.913z"/>
	</g>
</g>
<g>
	<g>
		<path fill="#828282" d="M389.276,199.913c-12.248,0-22.213,9.965-22.213,22.213c0,12.248,9.965,22.213,22.213,22.213
			c12.248,0,22.213-9.965,22.213-22.213C411.488,209.878,401.524,199.913,389.276,199.913z"/>
	</g>
</g>
<g>
	<g>
		<path fill="#828282" d="M322.638,199.913c-12.248,0-22.213,9.965-22.213,22.213c0,12.248,9.965,22.213,22.213,22.213s22.213-9.965,22.213-22.213
			C344.85,209.878,334.886,199.913,322.638,199.913z"/>
	</g>
</g>
<g>
	<g>
		<path fill="#828282" d="M256,199.913c-12.248,0-22.213,9.965-22.213,22.213c0,12.248,9.965,22.213,22.213,22.213
			c12.248,0,22.213-9.965,22.213-22.213C278.213,209.878,268.248,199.913,256,199.913z"/>
	</g>
</g>
<g>
	<g>
		<path fill="#828282" d="M422.246,155.961C416.741,69.037,344.287,0,256,0S95.259,69.037,89.754,155.96c-49.994,4.865-89.199,47.124-89.199,98.374
			v23.323c0,0.494,0.043,0.977,0.106,1.454c0.014,0.113,0.033,0.224,0.051,0.337c0.072,0.445,0.167,0.883,0.29,1.308
			c0.01,0.034,0.017,0.069,0.027,0.102c0.142,0.473,0.32,0.931,0.522,1.375c0.037,0.082,0.079,0.162,0.118,0.244
			c0.194,0.401,0.408,0.79,0.646,1.162c0.022,0.034,0.037,0.072,0.059,0.107c0.017,0.026,0.036,0.051,0.052,0.077
			c0.019,0.029,0.039,0.057,0.058,0.086c29.891,45.466,80.2,72.604,134.618,72.604h18.942v33.319
			c0,6.133,4.973,11.106,11.106,11.106h5.807l-38.332,95.832c-1.368,3.422-0.95,7.299,1.116,10.351
			c2.066,3.051,5.511,4.88,9.196,4.88H256c6.133,0,11.106-4.973,11.106-11.106c0-6.133-4.973-11.106-11.106-11.106h-94.658
			l35.54-88.85h96.024l35.54,88.85h-5.809c-6.133,0-11.106,4.973-11.106,11.106c0,6.133,4.973,11.106,11.106,11.106h22.213
			c3.685,0,7.13-1.828,9.196-4.88c2.066-3.052,2.484-6.929,1.116-10.351l-38.332-95.832h5.807c6.133,0,11.106-4.973,11.106-11.106
			v-33.319h41.154c54.42,0,104.727-27.138,134.617-72.602c0.019-0.029,0.039-0.057,0.058-0.086c0.017-0.026,0.036-0.051,0.052-0.077
			c0.022-0.034,0.038-0.072,0.059-0.107c0.239-0.372,0.453-0.762,0.646-1.162c0.04-0.083,0.082-0.163,0.119-0.245
			c0.202-0.444,0.38-0.902,0.522-1.375c0.01-0.033,0.017-0.069,0.027-0.102c0.123-0.425,0.217-0.863,0.29-1.308
			c0.019-0.112,0.037-0.223,0.051-0.337c0.062-0.476,0.105-0.96,0.105-1.454v-23.323
			C511.445,203.085,472.239,160.826,422.246,155.961z M256,22.213c75.875,0,138.269,58.833,143.959,133.276H112.041
			C117.731,81.046,180.125,22.213,256,22.213z M311.531,378.724h-11.106H189.362h-11.106v-22.213h133.275V378.724z M489.232,266.551
			H167.15c-6.133,0-11.106,4.973-11.106,11.106c0,6.133,4.973,11.106,11.106,11.106h310.593
			c-26.101,28.822-63.204,45.536-102.844,45.536h-52.261H167.15h-30.048c-39.641,0-76.743-16.714-102.844-45.536h66.255
			c6.133,0,11.106-4.973,11.106-11.106c0-6.133-4.973-11.106-11.106-11.106H22.768v-12.217c0-42.256,34.377-76.633,76.633-76.633
			h1.111h310.976h1.111c42.256,0,76.633,34.377,76.633,76.633V266.551z"/>
	</g>
</g>
<g>
	<g>
		<path fill="#828282" d="M300.203,498.728c-0.133-0.711-0.357-1.41-0.634-2.077c-0.278-0.677-0.622-1.321-1.022-1.92
			c-0.399-0.612-0.865-1.178-1.377-1.689c-0.511-0.511-1.077-0.977-1.688-1.377c-0.6-0.411-1.244-0.744-1.921-1.022
			c-0.666-0.278-1.365-0.5-2.076-0.644c-1.433-0.278-2.899-0.278-4.331,0c-0.711,0.144-1.411,0.366-2.077,0.644
			c-0.677,0.278-1.321,0.611-1.92,1.022c-0.612,0.4-1.178,0.866-1.689,1.377c-0.511,0.511-0.977,1.077-1.377,1.689
			c-0.399,0.6-0.744,1.243-1.022,1.92c-0.278,0.667-0.5,1.366-0.644,2.077c-0.144,0.711-0.21,1.444-0.21,2.166
			c0,2.921,1.187,5.786,3.254,7.851c0.511,0.512,1.077,0.978,1.689,1.377c0.6,0.4,1.243,0.744,1.92,1.022
			c0.667,0.278,1.366,0.5,2.077,0.633c0.711,0.144,1.444,0.222,2.166,0.222c0.721,0,1.455-0.078,2.166-0.222
			c0.711-0.133,1.411-0.355,2.076-0.633c0.677-0.278,1.322-0.622,1.921-1.022c0.611-0.399,1.177-0.865,1.688-1.377
			c0.512-0.511,0.979-1.077,1.377-1.688c0.4-0.6,0.744-1.244,1.022-1.921c0.278-0.666,0.5-1.365,0.633-2.076
			c0.144-0.712,0.222-1.445,0.222-2.166C300.425,500.172,300.348,499.438,300.203,498.728z"/>
	</g>
</g>
<g>
</g>
<g>
</g>
<g>
</g>
<g>
</g>
<g>
</g>
<g>
</g>
<g>
</g>
<g>
</g>
<g>
</g>
<g>
</g>
<g>
</g>
<g>
</g>
<g>
</g>
<g>
</g>
<g>
</g>
</svg>
